<svg width="14" height="18" viewBox="0 0 14 18" fill="none" xmlns="http://www.w3.org/2000/svg">
<path d="M6.53606 0C5.58128 0 4.66561 0.379285 3.99047 1.05442C3.31534 1.72955 2.93606 2.64522 2.93606 3.6V4.2H2.43806C1.93293 4.19947 1.44706 4.39378 1.08159 4.74248C0.716125 5.09118 0.49923 5.5674 0.476059 6.072L0.00205928 15.942C-0.0100916 16.2074 0.0316248 16.4725 0.124694 16.7214C0.217763 16.9702 0.360257 17.1977 0.543588 17.39C0.726919 17.5823 0.947289 17.7355 1.19142 17.8403C1.43554 17.9451 1.69837 17.9995 1.96406 18H11.1081C11.3737 17.9995 11.6366 17.9451 11.8807 17.8403C12.1248 17.7355 12.3452 17.5823 12.5285 17.39C12.7119 17.1977 12.8544 16.9702 12.9474 16.7214C13.0405 16.4725 13.0822 16.2074 13.0701 15.942L12.5961 6.072C12.5729 5.5674 12.356 5.09118 11.9905 4.74248C11.6251 4.39378 11.1392 4.19947 10.6341 4.2H10.1361V3.6C10.1361 2.64522 9.75677 1.72955 9.08164 1.05442C8.40651 0.379285 7.49084 0 6.53606 0ZM4.13606 3.6C4.13606 2.96348 4.38892 2.35303 4.839 1.90294C5.28909 1.45286 5.89954 1.2 6.53606 1.2C7.17258 1.2 7.78303 1.45286 8.23311 1.90294C8.6832 2.35303 8.93606 2.96348 8.93606 3.6V4.2H4.13606V3.6ZM3.15206 6.714C3.15206 6.59533 3.18725 6.47933 3.25318 6.38066C3.31911 6.28199 3.41281 6.20509 3.52245 6.15967C3.63208 6.11426 3.75272 6.10238 3.86911 6.12553C3.9855 6.14868 4.09241 6.20582 4.17632 6.28974C4.26023 6.37365 4.31738 6.48056 4.34053 6.59695C4.36368 6.71333 4.3518 6.83397 4.30639 6.94361C4.26097 7.05325 4.18407 7.14695 4.0854 7.21288C3.98673 7.27881 3.87073 7.314 3.75206 7.314C3.59293 7.314 3.44032 7.25079 3.32779 7.13826C3.21527 7.02574 3.15206 6.87313 3.15206 6.714ZM8.72006 6.714C8.72006 6.59533 8.75525 6.47933 8.82118 6.38066C8.88711 6.28199 8.98081 6.20509 9.09045 6.15967C9.20008 6.11426 9.32072 6.10238 9.43711 6.12553C9.5535 6.14868 9.66041 6.20582 9.74432 6.28974C9.82823 6.37365 9.88538 6.48056 9.90853 6.59695C9.93168 6.71333 9.9198 6.83397 9.87439 6.94361C9.82897 7.05325 9.75207 7.14695 9.6534 7.21288C9.55473 7.27881 9.43873 7.314 9.32006 7.314C9.16093 7.314 9.00832 7.25079 8.89579 7.13826C8.78327 7.02574 8.72006 6.87313 8.72006 6.714Z" fill="white"/>
</svg>
