<svg width="129" height="129" viewBox="0 0 129 129" fill="none" xmlns="http://www.w3.org/2000/svg">
<path fill-rule="evenodd" clip-rule="evenodd" d="M128.337 44.1091C127.832 43.3738 126.991 42.9966 126.144 42.9966H77.89L101.952 4.53518C102.572 3.5475 102.606 2.19562 101.854 1.11168C101.344 0.375475 100.495 0 99.6441 0H58.0915C53.9195 0 50.0213 2.23724 47.6845 5.97204L0.460904 81.4589C-0.156879 82.4474 -0.182873 83.7993 0.561413 84.8833C1.06569 85.6177 1.90615 85.9941 2.75441 85.9941H50.9839L26.919 124.465C26.4858 125.159 26.3532 126.032 26.5508 126.864C26.8549 128.154 27.9969 129 29.2281 129H70.7565C74.9596 129 78.8873 126.746 81.2406 122.983L104.374 85.9941L128.436 47.5326C129.054 46.545 129.08 45.1913 128.337 44.1091Z" fill="#4E48E0"/>
<path fill-rule="evenodd" clip-rule="evenodd" d="M104.38 85.9856L81.2417 122.982C78.8884 126.746 74.9599 129 70.7576 129H29.2292C27.998 129 26.856 128.154 26.5519 126.865C26.3543 126.032 26.4869 125.159 26.9201 124.465L50.9894 85.9856H104.38Z" fill="#4E48E0"/>
<path fill-rule="evenodd" clip-rule="evenodd" d="M77.8582 42.9966H126.143C126.991 42.9966 127.831 43.3738 128.336 44.1083C129.08 45.1913 129.053 46.5441 128.436 47.5326L104.375 85.994H50.9634L77.8582 42.9966Z" fill="#1C81C1"/>
<path fill-rule="evenodd" clip-rule="evenodd" d="M2.7542 85.9941C1.9068 85.9941 1.06634 85.6177 0.562062 84.8833C-0.18309 83.7993 -0.157096 82.4474 0.461553 81.4598L47.6851 5.97204C50.0211 2.23724 53.9201 0 58.0913 0H99.6439C100.495 0 101.345 0.376342 101.855 1.11168C102.606 2.19562 102.572 3.5475 101.953 4.53604L50.9889 85.9941H2.7542Z" fill="#5CC4CD"/>
</svg>
